<?xml version="1.0" encoding="UTF-8"?>
<svg xmlns="http://www.w3.org/2000/svg" font-family="ui-monospace, SFMono-Regular, Menlo, monospace" font-size="13" width="760" height="304" viewBox="0 0 760 304">
  <g font-weight="bold" fill="#d3d3d3">
    <text x="12" y="22">measurement_id</text>
    <text x="150" y="22">wafer_id</text>
    <text x="240" y="22">pass</text>
    <text x="312" y="22" text-anchor="end">x</text>
    <text x="350" y="22" text-anchor="end">y</text>
    <text x="380" y="22">modified_at</text>
  </g>
  <line x1="8" y1="30" x2="560" y2="30" stroke="#d3d3d3" stroke-opacity="0.25"/>
  <rect x="6" y="36" width="548" height="26" fill="#e2e8f0" fill-opacity="0.15"/>
  <text x="12" y="53" fill="#d3d3d3">1479</text>
  <text x="150" y="53" fill="#d3d3d3">6</text>
  <text x="240" y="53" fill="tomato" font-weight="bold">false</text>
  <text x="312" y="53" text-anchor="end" fill="#d3d3d3">3</text>
  <text x="350" y="53" text-anchor="end" fill="#d3d3d3">3</text>
  <text x="380" y="53" fill="#d3d3d3">13:43:17</text>
  <rect x="6" y="62" width="548" height="26" fill="#e2e8f0" fill-opacity="0.15"/>
  <text x="12" y="79" fill="#d3d3d3">1478</text>
  <text x="150" y="79" fill="#d3d3d3">6</text>
  <text x="240" y="79" fill="tomato" font-weight="bold">false</text>
  <text x="312" y="79" text-anchor="end" fill="#d3d3d3">3</text>
  <text x="350" y="79" text-anchor="end" fill="#d3d3d3">2</text>
  <text x="380" y="79" fill="#d3d3d3">13:43:08</text>
  <rect x="6" y="88" width="548" height="26" fill="#94a3b8" fill-opacity="0.15"/>
  <text x="12" y="105" fill="#d3d3d3">1477</text>
  <text x="150" y="105" fill="#d3d3d3">5</text>
  <text x="240" y="105" fill="deepskyblue" font-weight="bold">true</text>
  <text x="312" y="105" text-anchor="end" fill="#d3d3d3">4</text>
  <text x="350" y="105" text-anchor="end" fill="#d3d3d3">-1</text>
  <text x="380" y="105" fill="#d3d3d3">13:43:07</text>
  <rect x="6" y="114" width="548" height="26" fill="#e2e8f0" fill-opacity="0.15"/>
  <text x="12" y="131" fill="#d3d3d3">1476</text>
  <text x="150" y="131" fill="#d3d3d3">6</text>
  <text x="240" y="131" fill="tomato" font-weight="bold">false</text>
  <text x="312" y="131" text-anchor="end" fill="#d3d3d3">3</text>
  <text x="350" y="131" text-anchor="end" fill="#d3d3d3">1</text>
  <text x="380" y="131" fill="#d3d3d3">13:42:58</text>
  <rect x="6" y="140" width="548" height="26" fill="#94a3b8" fill-opacity="0.15"/>
  <text x="12" y="157" fill="#d3d3d3">1475</text>
  <text x="150" y="157" fill="#d3d3d3">5</text>
  <text x="240" y="157" fill="tomato" font-weight="bold">false</text>
  <text x="312" y="157" text-anchor="end" fill="#d3d3d3">4</text>
  <text x="350" y="157" text-anchor="end" fill="#d3d3d3">-2</text>
  <text x="380" y="157" fill="#d3d3d3">13:42:57</text>
  <rect x="6" y="166" width="548" height="26" fill="#e2e8f0" fill-opacity="0.15"/>
  <text x="12" y="183" fill="#d3d3d3">1474</text>
  <text x="150" y="183" fill="#d3d3d3">6</text>
  <text x="240" y="183" fill="deepskyblue" font-weight="bold">true</text>
  <text x="312" y="183" text-anchor="end" fill="#d3d3d3">3</text>
  <text x="350" y="183" text-anchor="end" fill="#d3d3d3">0</text>
  <text x="380" y="183" fill="#d3d3d3">13:42:48</text>
  <rect x="6" y="192" width="548" height="26" fill="#94a3b8" fill-opacity="0.15"/>
  <text x="12" y="209" fill="#d3d3d3">1473</text>
  <text x="150" y="209" fill="#d3d3d3">5</text>
  <text x="240" y="209" fill="deepskyblue" font-weight="bold">true</text>
  <text x="312" y="209" text-anchor="end" fill="#d3d3d3">4</text>
  <text x="350" y="209" text-anchor="end" fill="#d3d3d3">-3</text>
  <text x="380" y="209" fill="#d3d3d3">13:42:48</text>
  <rect x="6" y="218" width="548" height="26" fill="#e2e8f0" fill-opacity="0.15"/>
  <text x="12" y="235" fill="#d3d3d3">1472</text>
  <text x="150" y="235" fill="#d3d3d3">6</text>
  <text x="240" y="235" fill="deepskyblue" font-weight="bold">true</text>
  <text x="312" y="235" text-anchor="end" fill="#d3d3d3">3</text>
  <text x="350" y="235" text-anchor="end" fill="#d3d3d3">-1</text>
  <text x="380" y="235" fill="#d3d3d3">13:42:38</text>
  <rect x="6" y="244" width="548" height="26" fill="#94a3b8" fill-opacity="0.15"/>
  <text x="12" y="261" fill="#d3d3d3">1471</text>
  <text x="150" y="261" fill="#d3d3d3">5</text>
  <text x="240" y="261" fill="deepskyblue" font-weight="bold">true</text>
  <text x="312" y="261" text-anchor="end" fill="#d3d3d3">4</text>
  <text x="350" y="261" text-anchor="end" fill="#d3d3d3">-4</text>
  <text x="380" y="261" fill="#d3d3d3">13:42:38</text>
  <rect x="6" y="270" width="548" height="26" fill="#e2e8f0" fill-opacity="0.15"/>
  <text x="12" y="287" fill="#d3d3d3">1470</text>
  <text x="150" y="287" fill="#d3d3d3">6</text>
  <text x="240" y="287" fill="tomato" font-weight="bold">false</text>
  <text x="312" y="287" text-anchor="end" fill="#d3d3d3">3</text>
  <text x="350" y="287" text-anchor="end" fill="#d3d3d3">-2</text>
  <text x="380" y="287" fill="#d3d3d3">13:42:29</text>
  <path d="M560 36 H568 V296 H560" fill="none" stroke="#d3d3d3" stroke-width="1.5"/>
  <g font-family="system-ui, sans-serif" fill="#d3d3d3" fill-opacity="0.7">
    <text x="596" y="139">wafers 5 &amp; 6 interleaved —</text>
    <text x="596" y="157">both on the tester at once,</text>
    <text x="596" y="175">rows land within seconds</text>
    <text x="596" y="193">of each other</text>
  </g>
</svg>
