<?xml version="1.0" encoding="UTF-8"?>
<svg xmlns="http://www.w3.org/2000/svg" class="plot-d6a7b5" fill="currentColor" font-family="system-ui, sans-serif" font-size="10" text-anchor="middle" width="300" height="300" viewBox="0 0 300 300">
  <style>:where(.plot-d6a7b5) {
  --plot-background: white;
  display: block;
  height: auto;
  height: intrinsic;
  max-width: 100%;
}
:where(.plot-d6a7b5 text),
:where(.plot-d6a7b5 tspan) {
  white-space: pre;
}</style>
  <g aria-label="cell">
    <rect x="7" width="29" y="71" height="29" fill="#472c7a"/>
    <rect x="7" width="29" y="103" height="29" fill="#1fa287"/>
    <rect x="7" width="29" y="135" height="29" fill="#440154"/>
    <rect x="7" width="29" y="167" height="29" fill="#69cd5b"/>
    <rect x="7" width="29" y="199" height="29" fill="#471164"/>
    <rect x="39" width="29" y="39" height="29" fill="#24868e"/>
    <rect x="39" width="29" y="71" height="29" fill="#34608d"/>
    <rect x="39" width="29" y="103" height="29" fill="#cde11d"/>
    <rect x="39" width="29" y="135" height="29" fill="#31688e"/>
    <rect x="39" width="29" y="167" height="29" fill="#9bd93c"/>
    <rect x="39" width="29" y="199" height="29" fill="#2a788e"/>
    <rect x="39" width="29" y="231" height="29" fill="#b5de2b"/>
    <rect x="71" width="29" y="7" height="29" fill="#90d743"/>
    <rect x="71" width="29" y="39" height="29" fill="#34618d"/>
    <rect x="71" width="29" y="71" height="29" fill="#2a778e"/>
    <rect x="71" width="29" y="103" height="29" fill="#c8e020"/>
    <rect x="71" width="29" y="135" height="29" fill="#25ac82"/>
    <rect x="71" width="29" y="167" height="29" fill="#228d8d"/>
    <rect x="71" width="29" y="199" height="29" fill="#27ad81"/>
    <rect x="71" width="29" y="231" height="29" fill="#22a884"/>
    <rect x="71" width="29" y="263" height="29" fill="#c8e020"/>
    <rect x="103" width="29" y="7" height="29" fill="#6ccd5a"/>
    <rect x="103" width="29" y="39" height="29" fill="#e2e418"/>
    <rect x="103" width="29" y="71" height="29" fill="#f6e620"/>
    <rect x="103" width="29" y="103" height="29" fill="#54c568"/>
    <rect x="103" width="29" y="135" height="29" fill="#355f8d"/>
    <rect x="103" width="29" y="167" height="29" fill="#306a8e"/>
    <rect x="103" width="29" y="199" height="29" fill="#481769"/>
    <rect x="103" width="29" y="231" height="29" fill="#25858e"/>
    <rect x="103" width="29" y="263" height="29" fill="#34608d"/>
    <rect x="135" width="29" y="7" height="29" fill="#1f9a8a"/>
    <rect x="135" width="29" y="39" height="29" fill="#90d743"/>
    <rect x="135" width="29" y="71" height="29" fill="#3b528b"/>
    <rect x="135" width="29" y="103" height="29" fill="#218e8d"/>
    <rect x="135" width="29" y="135" height="29" fill="#277e8e"/>
    <rect x="135" width="29" y="167" height="29" fill="#24aa83"/>
    <rect x="135" width="29" y="199" height="29" fill="#20938c"/>
    <rect x="135" width="29" y="231" height="29" fill="#33638d"/>
    <rect x="135" width="29" y="263" height="29" fill="#3c4f8a"/>
    <rect x="167" width="29" y="7" height="29" fill="#20a486"/>
    <rect x="167" width="29" y="39" height="29" fill="#414287"/>
    <rect x="167" width="29" y="71" height="29" fill="#9dd93b"/>
    <rect x="167" width="29" y="103" height="29" fill="#30698e"/>
    <rect x="167" width="29" y="135" height="29" fill="#1e9c89"/>
    <rect x="167" width="29" y="167" height="29" fill="#32658e"/>
    <rect x="167" width="29" y="199" height="29" fill="#1e9b8a"/>
    <rect x="167" width="29" y="231" height="29" fill="#26828e"/>
    <rect x="167" width="29" y="263" height="29" fill="#1f978b"/>
    <rect x="199" width="29" y="7" height="29" fill="#1e9d89"/>
    <rect x="199" width="29" y="39" height="29" fill="#fbe723"/>
    <rect x="199" width="29" y="71" height="29" fill="#29af7f"/>
    <rect x="199" width="29" y="103" height="29" fill="#3aba76"/>
    <rect x="199" width="29" y="135" height="29" fill="#38b977"/>
    <rect x="199" width="29" y="167" height="29" fill="#481d6f"/>
    <rect x="199" width="29" y="199" height="29" fill="#5ec962"/>
    <rect x="199" width="29" y="231" height="29" fill="#2c718e"/>
    <rect x="199" width="29" y="263" height="29" fill="#dae319"/>
    <rect x="231" width="29" y="39" height="29" fill="#fde725"/>
    <rect x="231" width="29" y="71" height="29" fill="#e5e419"/>
    <rect x="231" width="29" y="103" height="29" fill="#2d718e"/>
    <rect x="231" width="29" y="135" height="29" fill="#472a7a"/>
    <rect x="231" width="29" y="167" height="29" fill="#77d153"/>
    <rect x="231" width="29" y="199" height="29" fill="#1fa287"/>
    <rect x="231" width="29" y="231" height="29" fill="#e5e419"/>
    <rect x="263" width="29" y="71" height="29" fill="#3dbc74"/>
    <rect x="263" width="29" y="103" height="29" fill="#228b8d"/>
    <rect x="263" width="29" y="135" height="29" fill="#42be71"/>
    <rect x="263" width="29" y="167" height="29" fill="#482173"/>
    <rect x="263" width="29" y="199" height="29" fill="#450457"/>
  </g>
</svg>
